<svg id="Layer_1" data-name="Layer 1" xmlns="http://www.w3.org/2000/svg" viewBox="0 0 154.02 64.6"><defs><style>.cls-1{fill:#ff8622;}.cls-2{fill:#ec4223;}.cls-3{fill:#818285;}.cls-4{fill:#ea7824;}</style></defs><title>matijajekurac</title><text x="-333.65" y="-256.24"/><polygon class="cls-1" points="41.32 12.21 49.23 12.21 54.62 21.85 59.55 13.94 59.55 24.94 54.16 33.77 41.32 12.21"/><rect class="cls-1" x="60.35" y="12.21" width="7.34" height="21.55"/><polygon class="cls-1" points="41.32 14.51 48.08 25.74 48.08 33.77 41.32 33.77 41.32 14.51"/><path class="cls-2" d="M431.15,281.41" transform="translate(-333.65 -256.24)"/><polygon class="cls-1" points="92.68 32.39 105.64 32.39 101.28 37.67 92.68 37.67 92.68 32.39"/><polygon class="cls-1" points="107.58 32.39 112.97 32.39 112.97 36.94 96.81 56.24 91.53 56.24 91.53 51.65 107.58 32.39"/><polygon class="cls-1" points="103.11 50.97 98.53 56.24 112.97 56.24 112.97 50.97 103.11 50.97"/><polygon class="cls-1" points="99.1 24.14 97.84 25.26 101.97 30.1 106.67 30.1 111.31 25.26 109.65 24.14 104.58 27.12 99.1 24.14"/><polygon class="cls-3" points="90.7 6 61.41 60.8 71.34 60.8 100.63 6 90.7 6"/><polygon class="cls-4" points="154.02 30.54 118.51 52.89 118.92 64.3 154.02 42.2 154.02 30.54"/><polygon class="cls-4" points="0 30.84 35.51 53.19 35.09 64.6 0 42.51 0 30.84"/><polygon class="cls-1" points="0 23.25 36.12 0.19 35.38 13.83 0 36.41 0 23.25"/><polygon class="cls-1" points="154.02 23.06 117.89 0 118.64 13.64 154.02 36.23 154.02 23.06"/></svg>